<mxfile host="app.diagrams.net" modified="2023-06-12T22:19:30.543Z" agent="Mozilla/5.0 (Windows NT 10.0; Win64; x64) AppleWebKit/537.36 (KHTML, like Gecko) Chrome/114.0.0.0 Safari/537.36" etag="1iXIupShpCd_TrhZnK9n" version="21.3.8" type="github">
  <diagram name="Page-1" id="0783ab3e-0a74-02c8-0abd-f7b4e66b4bec">
    <mxGraphModel dx="1985" dy="1155" grid="1" gridSize="10" guides="1" tooltips="1" connect="1" arrows="1" fold="1" page="1" pageScale="1" pageWidth="850" pageHeight="1100" background="none" math="0" shadow="0">
      <root>
        <mxCell id="0" />
        <mxCell id="1" parent="0" />
        <mxCell id="1c1d494c118603dd-1" value="BloodNetwork" style="swimlane;html=1;childLayout=stackLayout;startSize=20;rounded=0;shadow=0;comic=0;labelBackgroundColor=none;strokeWidth=1;fontFamily=Verdana;fontSize=12;align=center;" parent="1" vertex="1">
          <mxGeometry x="40" y="20" width="1650" height="890" as="geometry" />
        </mxCell>
        <mxCell id="1c1d494c118603dd-2" value="Administrator(autentificat)" style="swimlane;html=1;startSize=20;" parent="1c1d494c118603dd-1" vertex="1">
          <mxGeometry y="20" width="700" height="870" as="geometry" />
        </mxCell>
        <mxCell id="1c1d494c118603dd-34" style="edgeStyle=none;rounded=0;html=1;labelBackgroundColor=none;startArrow=none;startFill=0;startSize=5;endArrow=open;endFill=0;endSize=5;jettySize=auto;orthogonalLoop=1;strokeWidth=1;fontFamily=Verdana;fontSize=12;exitX=0.5;exitY=1;exitDx=0;exitDy=0;entryX=0.5;entryY=0;entryDx=0;entryDy=0;" parent="1c1d494c118603dd-2" source="73ctjBRM2FCBYfKOBE_B-1" target="1c1d494c118603dd-6" edge="1">
          <mxGeometry relative="1" as="geometry" />
        </mxCell>
        <mxCell id="1c1d494c118603dd-6" value="Accesare pagină programări" style="rounded=1;whiteSpace=wrap;html=1;shadow=0;comic=0;labelBackgroundColor=none;strokeWidth=1;fontFamily=Verdana;fontSize=12;align=center;arcSize=50;" parent="1c1d494c118603dd-2" vertex="1">
          <mxGeometry x="222.5" y="140" width="112.5" height="30" as="geometry" />
        </mxCell>
        <mxCell id="73ctjBRM2FCBYfKOBE_B-4" style="edgeStyle=orthogonalEdgeStyle;rounded=0;orthogonalLoop=1;jettySize=auto;html=1;entryX=0;entryY=0.5;entryDx=0;entryDy=0;exitX=1;exitY=0.5;exitDx=0;exitDy=0;endArrow=open;endFill=0;" edge="1" parent="1c1d494c118603dd-2" source="73ctjBRM2FCBYfKOBE_B-2" target="1c1d494c118603dd-7">
          <mxGeometry relative="1" as="geometry">
            <mxPoint x="170" y="520" as="targetPoint" />
            <mxPoint x="310" y="330" as="sourcePoint" />
          </mxGeometry>
        </mxCell>
        <mxCell id="1c1d494c118603dd-7" value="Gestionare programări" style="rounded=1;whiteSpace=wrap;html=1;shadow=0;comic=0;labelBackgroundColor=none;strokeWidth=1;fontFamily=Verdana;fontSize=12;align=center;arcSize=50;" parent="1c1d494c118603dd-2" vertex="1">
          <mxGeometry x="420" y="240" width="100" height="30" as="geometry" />
        </mxCell>
        <mxCell id="1c1d494c118603dd-35" style="edgeStyle=none;rounded=0;html=1;labelBackgroundColor=none;startArrow=none;startFill=0;startSize=5;endArrow=open;endFill=0;endSize=5;jettySize=auto;orthogonalLoop=1;strokeWidth=1;fontFamily=Verdana;fontSize=12;exitX=1;exitY=0.5;exitDx=0;exitDy=0;entryX=0;entryY=0.5;entryDx=0;entryDy=0;" parent="1c1d494c118603dd-2" source="73ctjBRM2FCBYfKOBE_B-5" target="1c1d494c118603dd-11" edge="1">
          <mxGeometry relative="1" as="geometry">
            <mxPoint x="180" y="380" as="targetPoint" />
            <Array as="points">
              <mxPoint x="400" y="385" />
            </Array>
          </mxGeometry>
        </mxCell>
        <mxCell id="73ctjBRM2FCBYfKOBE_B-1" value="" style="ellipse;whiteSpace=wrap;html=1;rounded=0;shadow=0;comic=0;labelBackgroundColor=none;strokeWidth=1;fillColor=#000000;fontFamily=Verdana;fontSize=12;align=center;" vertex="1" parent="1c1d494c118603dd-2">
          <mxGeometry x="261.25" y="40" width="35" height="30" as="geometry" />
        </mxCell>
        <mxCell id="73ctjBRM2FCBYfKOBE_B-2" value="" style="rhombus;whiteSpace=wrap;html=1;" vertex="1" parent="1c1d494c118603dd-2">
          <mxGeometry x="250" y="230" width="57.5" height="50" as="geometry" />
        </mxCell>
        <mxCell id="73ctjBRM2FCBYfKOBE_B-3" style="edgeStyle=none;rounded=0;html=1;labelBackgroundColor=none;startArrow=none;startFill=0;startSize=5;endArrow=open;endFill=0;endSize=5;jettySize=auto;orthogonalLoop=1;strokeWidth=1;fontFamily=Verdana;fontSize=12;entryX=0.5;entryY=0;entryDx=0;entryDy=0;exitX=0.5;exitY=1;exitDx=0;exitDy=0;" edge="1" parent="1c1d494c118603dd-2" source="1c1d494c118603dd-6" target="73ctjBRM2FCBYfKOBE_B-2">
          <mxGeometry relative="1" as="geometry">
            <mxPoint x="240" y="210" as="sourcePoint" />
            <mxPoint x="158" y="150" as="targetPoint" />
          </mxGeometry>
        </mxCell>
        <mxCell id="73ctjBRM2FCBYfKOBE_B-5" value="" style="rhombus;whiteSpace=wrap;html=1;" vertex="1" parent="1c1d494c118603dd-2">
          <mxGeometry x="440" y="360" width="57.5" height="50" as="geometry" />
        </mxCell>
        <mxCell id="1c1d494c118603dd-36" style="edgeStyle=none;rounded=0;html=1;labelBackgroundColor=none;startArrow=none;startFill=0;startSize=5;endArrow=open;endFill=0;endSize=5;jettySize=auto;orthogonalLoop=1;strokeWidth=1;fontFamily=Verdana;fontSize=12;exitX=0.5;exitY=1;exitDx=0;exitDy=0;entryX=0.5;entryY=0;entryDx=0;entryDy=0;" parent="1c1d494c118603dd-2" source="1c1d494c118603dd-7" target="73ctjBRM2FCBYfKOBE_B-5" edge="1">
          <mxGeometry relative="1" as="geometry" />
        </mxCell>
        <mxCell id="1c1d494c118603dd-11" value="Apasă butonul edit" style="rounded=1;whiteSpace=wrap;html=1;shadow=0;comic=0;labelBackgroundColor=none;strokeWidth=1;fontFamily=Verdana;fontSize=12;align=center;arcSize=50;" parent="1c1d494c118603dd-2" vertex="1">
          <mxGeometry x="560" y="370" width="100" height="30" as="geometry" />
        </mxCell>
        <mxCell id="73ctjBRM2FCBYfKOBE_B-6" style="edgeStyle=orthogonalEdgeStyle;rounded=0;orthogonalLoop=1;jettySize=auto;html=1;exitX=0.5;exitY=1;exitDx=0;exitDy=0;" edge="1" parent="1c1d494c118603dd-2" source="1c1d494c118603dd-11" target="1c1d494c118603dd-11">
          <mxGeometry relative="1" as="geometry" />
        </mxCell>
        <mxCell id="73ctjBRM2FCBYfKOBE_B-7" value="Modifică&amp;nbsp;&lt;br&gt;programare" style="text;html=1;strokeColor=none;fillColor=none;align=center;verticalAlign=middle;whiteSpace=wrap;rounded=0;" vertex="1" parent="1c1d494c118603dd-2">
          <mxGeometry x="497.5" y="350" width="60" height="30" as="geometry" />
        </mxCell>
        <mxCell id="73ctjBRM2FCBYfKOBE_B-8" value="Șterge&amp;nbsp;&lt;br&gt;programare" style="text;html=1;strokeColor=none;fillColor=none;align=center;verticalAlign=middle;whiteSpace=wrap;rounded=0;" vertex="1" parent="1c1d494c118603dd-2">
          <mxGeometry x="380" y="350" width="60" height="30" as="geometry" />
        </mxCell>
        <mxCell id="1c1d494c118603dd-16" value="Selectează&lt;br&gt;programare&amp;nbsp;" style="rounded=1;whiteSpace=wrap;html=1;shadow=0;comic=0;labelBackgroundColor=none;strokeWidth=1;fontFamily=Verdana;fontSize=12;align=center;arcSize=50;" parent="1c1d494c118603dd-2" vertex="1">
          <mxGeometry x="280" y="370" width="100" height="30" as="geometry" />
        </mxCell>
        <mxCell id="73ctjBRM2FCBYfKOBE_B-10" style="edgeStyle=none;rounded=0;html=1;labelBackgroundColor=none;startArrow=none;startFill=0;startSize=5;endArrow=open;endFill=0;endSize=5;jettySize=auto;orthogonalLoop=1;strokeWidth=1;fontFamily=Verdana;fontSize=12;exitX=0;exitY=0.5;exitDx=0;exitDy=0;entryX=1;entryY=0.5;entryDx=0;entryDy=0;" edge="1" parent="1c1d494c118603dd-2" source="73ctjBRM2FCBYfKOBE_B-5" target="1c1d494c118603dd-16">
          <mxGeometry relative="1" as="geometry">
            <mxPoint x="363" y="395" as="sourcePoint" />
            <mxPoint x="410" y="510" as="targetPoint" />
            <Array as="points" />
          </mxGeometry>
        </mxCell>
        <mxCell id="73ctjBRM2FCBYfKOBE_B-11" value="Apasă buton&lt;br&gt;delete" style="rounded=1;whiteSpace=wrap;html=1;shadow=0;comic=0;labelBackgroundColor=none;strokeWidth=1;fontFamily=Verdana;fontSize=12;align=center;arcSize=50;" vertex="1" parent="1c1d494c118603dd-2">
          <mxGeometry x="280" y="530" width="100" height="30" as="geometry" />
        </mxCell>
        <mxCell id="73ctjBRM2FCBYfKOBE_B-12" style="edgeStyle=orthogonalEdgeStyle;rounded=0;orthogonalLoop=1;jettySize=auto;html=1;exitX=0.5;exitY=1;exitDx=0;exitDy=0;endArrow=open;endFill=0;" edge="1" parent="1c1d494c118603dd-2" source="1c1d494c118603dd-16" target="73ctjBRM2FCBYfKOBE_B-11">
          <mxGeometry relative="1" as="geometry">
            <mxPoint x="186" y="275" as="targetPoint" />
            <mxPoint x="284" y="275" as="sourcePoint" />
          </mxGeometry>
        </mxCell>
        <mxCell id="73ctjBRM2FCBYfKOBE_B-13" value="Schimbare in programări" style="text;html=1;strokeColor=none;fillColor=none;align=center;verticalAlign=middle;whiteSpace=wrap;rounded=0;" vertex="1" parent="1c1d494c118603dd-2">
          <mxGeometry x="325" y="220" width="60" height="30" as="geometry" />
        </mxCell>
        <mxCell id="73ctjBRM2FCBYfKOBE_B-17" value="Apasă buton pentru vizualizare detalii" style="rounded=1;whiteSpace=wrap;html=1;shadow=0;comic=0;labelBackgroundColor=none;strokeWidth=1;fontFamily=Verdana;fontSize=12;align=center;arcSize=50;" vertex="1" parent="1c1d494c118603dd-2">
          <mxGeometry x="50" y="240" width="130" height="30" as="geometry" />
        </mxCell>
        <mxCell id="73ctjBRM2FCBYfKOBE_B-18" value="" style="endArrow=open;html=1;rounded=0;exitX=0;exitY=0.5;exitDx=0;exitDy=0;entryX=1;entryY=0.5;entryDx=0;entryDy=0;endFill=0;" edge="1" parent="1c1d494c118603dd-2" source="73ctjBRM2FCBYfKOBE_B-2" target="73ctjBRM2FCBYfKOBE_B-17">
          <mxGeometry width="50" height="50" relative="1" as="geometry">
            <mxPoint x="350" y="310" as="sourcePoint" />
            <mxPoint x="400" y="260" as="targetPoint" />
          </mxGeometry>
        </mxCell>
        <mxCell id="73ctjBRM2FCBYfKOBE_B-19" value="Vizualizare programari" style="text;html=1;strokeColor=none;fillColor=none;align=center;verticalAlign=middle;whiteSpace=wrap;rounded=0;" vertex="1" parent="1c1d494c118603dd-2">
          <mxGeometry x="190" y="220" width="60" height="30" as="geometry" />
        </mxCell>
        <mxCell id="73ctjBRM2FCBYfKOBE_B-46" value="Completare cu date noi și adăugare modificare" style="rounded=1;whiteSpace=wrap;html=1;shadow=0;comic=0;labelBackgroundColor=none;strokeWidth=1;fontFamily=Verdana;fontSize=12;align=center;arcSize=50;" vertex="1" parent="1c1d494c118603dd-2">
          <mxGeometry x="541.25" y="480" width="137.5" height="40" as="geometry" />
        </mxCell>
        <mxCell id="73ctjBRM2FCBYfKOBE_B-47" value="" style="endArrow=open;html=1;rounded=0;entryX=0.5;entryY=0;entryDx=0;entryDy=0;endFill=0;" edge="1" parent="1c1d494c118603dd-2" target="73ctjBRM2FCBYfKOBE_B-52">
          <mxGeometry width="50" height="50" relative="1" as="geometry">
            <mxPoint x="608" y="520" as="sourcePoint" />
            <mxPoint x="400" y="340" as="targetPoint" />
          </mxGeometry>
        </mxCell>
        <mxCell id="73ctjBRM2FCBYfKOBE_B-52" value="Apasă buton&lt;br&gt;salvare" style="rounded=1;whiteSpace=wrap;html=1;shadow=0;comic=0;labelBackgroundColor=none;strokeWidth=1;fontFamily=Verdana;fontSize=12;align=center;arcSize=50;" vertex="1" parent="1c1d494c118603dd-2">
          <mxGeometry x="557.5" y="570" width="100" height="30" as="geometry" />
        </mxCell>
        <mxCell id="73ctjBRM2FCBYfKOBE_B-55" value="" style="rhombus;whiteSpace=wrap;html=1;" vertex="1" parent="1c1d494c118603dd-2">
          <mxGeometry x="578.75" y="670" width="57.5" height="50" as="geometry" />
        </mxCell>
        <mxCell id="73ctjBRM2FCBYfKOBE_B-56" style="edgeStyle=orthogonalEdgeStyle;rounded=0;orthogonalLoop=1;jettySize=auto;html=1;exitX=0;exitY=0.5;exitDx=0;exitDy=0;entryX=0;entryY=0.5;entryDx=0;entryDy=0;endArrow=open;endFill=0;" edge="1" parent="1c1d494c118603dd-2" source="73ctjBRM2FCBYfKOBE_B-55" target="1c1d494c118603dd-6">
          <mxGeometry relative="1" as="geometry">
            <mxPoint x="340" y="540" as="targetPoint" />
            <mxPoint x="340" y="410" as="sourcePoint" />
          </mxGeometry>
        </mxCell>
        <mxCell id="73ctjBRM2FCBYfKOBE_B-57" value="Repetă acțiune" style="text;align=center;fontStyle=1;verticalAlign=middle;spacingLeft=3;spacingRight=3;strokeColor=none;rotatable=0;points=[[0,0.5],[1,0.5]];portConstraint=eastwest;html=1;" vertex="1" parent="1c1d494c118603dd-2">
          <mxGeometry x="477.5" y="670" width="80" height="26" as="geometry" />
        </mxCell>
        <mxCell id="73ctjBRM2FCBYfKOBE_B-95" style="edgeStyle=orthogonalEdgeStyle;rounded=0;orthogonalLoop=1;jettySize=auto;html=1;exitX=0.5;exitY=1;exitDx=0;exitDy=0;entryX=0;entryY=0.5;entryDx=0;entryDy=0;endArrow=open;endFill=0;" edge="1" parent="1c1d494c118603dd-2" source="73ctjBRM2FCBYfKOBE_B-11" target="73ctjBRM2FCBYfKOBE_B-52">
          <mxGeometry relative="1" as="geometry">
            <mxPoint x="340" y="540" as="targetPoint" />
            <mxPoint x="340" y="410" as="sourcePoint" />
          </mxGeometry>
        </mxCell>
        <mxCell id="1c1d494c118603dd-3" value="Aplicație Web" style="swimlane;html=1;startSize=20;" parent="1c1d494c118603dd-1" vertex="1">
          <mxGeometry x="700" y="20" width="260" height="870" as="geometry" />
        </mxCell>
        <mxCell id="73ctjBRM2FCBYfKOBE_B-44" value="Afiseaza pagina&amp;nbsp;&lt;br&gt;modificare" style="rounded=1;whiteSpace=wrap;html=1;shadow=0;comic=0;labelBackgroundColor=none;strokeWidth=1;fontFamily=Verdana;fontSize=12;align=center;arcSize=50;" vertex="1" parent="1c1d494c118603dd-3">
          <mxGeometry x="30" y="370" width="130" height="30" as="geometry" />
        </mxCell>
        <mxCell id="73ctjBRM2FCBYfKOBE_B-53" value="Afisare toate programarile cu actualizare facuta" style="rounded=1;whiteSpace=wrap;html=1;shadow=0;comic=0;labelBackgroundColor=none;strokeWidth=1;fontFamily=Verdana;fontSize=12;align=center;arcSize=50;" vertex="1" parent="1c1d494c118603dd-3">
          <mxGeometry x="60" y="557.5" width="100" height="55" as="geometry" />
        </mxCell>
        <mxCell id="60571a20871a0731-5" value="" style="shape=mxgraph.bpmn.shape;html=1;verticalLabelPosition=bottom;labelBackgroundColor=#ffffff;verticalAlign=top;perimeter=ellipsePerimeter;outline=end;symbol=terminate;rounded=0;shadow=0;comic=0;strokeWidth=1;fontFamily=Verdana;fontSize=12;align=center;" parent="1c1d494c118603dd-3" vertex="1">
          <mxGeometry x="90" y="800" width="40" height="40" as="geometry" />
        </mxCell>
        <mxCell id="73ctjBRM2FCBYfKOBE_B-59" value="Delogare" style="text;align=center;fontStyle=1;verticalAlign=middle;spacingLeft=3;spacingRight=3;strokeColor=none;rotatable=0;points=[[0,0.5],[1,0.5]];portConstraint=eastwest;html=1;" vertex="1" parent="1c1d494c118603dd-3">
          <mxGeometry x="-10" y="790" width="80" height="26" as="geometry" />
        </mxCell>
        <mxCell id="73ctjBRM2FCBYfKOBE_B-80" value="Afisare programare personală" style="rounded=1;whiteSpace=wrap;html=1;shadow=0;comic=0;labelBackgroundColor=none;strokeWidth=1;fontFamily=Verdana;fontSize=12;align=center;arcSize=50;" vertex="1" parent="1c1d494c118603dd-3">
          <mxGeometry x="130" y="630" width="100" height="55" as="geometry" />
        </mxCell>
        <mxCell id="73ctjBRM2FCBYfKOBE_B-100" value="" style="rhombus;whiteSpace=wrap;html=1;" vertex="1" parent="1c1d494c118603dd-3">
          <mxGeometry x="172.5" y="420" width="57.5" height="50" as="geometry" />
        </mxCell>
        <mxCell id="73ctjBRM2FCBYfKOBE_B-102" value="" style="endArrow=open;html=1;rounded=0;exitX=0.5;exitY=1;exitDx=0;exitDy=0;endFill=0;" edge="1" parent="1c1d494c118603dd-3" source="73ctjBRM2FCBYfKOBE_B-100">
          <mxGeometry width="50" height="50" relative="1" as="geometry">
            <mxPoint x="481" y="120" as="sourcePoint" />
            <mxPoint x="200" y="630" as="targetPoint" />
          </mxGeometry>
        </mxCell>
        <mxCell id="73ctjBRM2FCBYfKOBE_B-103" value="" style="endArrow=open;html=1;rounded=0;exitX=0.5;exitY=1;exitDx=0;exitDy=0;endFill=0;entryX=1;entryY=0.5;entryDx=0;entryDy=0;" edge="1" parent="1c1d494c118603dd-3" source="73ctjBRM2FCBYfKOBE_B-80" target="60571a20871a0731-5">
          <mxGeometry width="50" height="50" relative="1" as="geometry">
            <mxPoint x="211" y="480" as="sourcePoint" />
            <mxPoint x="210" y="640" as="targetPoint" />
            <Array as="points">
              <mxPoint x="180" y="820" />
            </Array>
          </mxGeometry>
        </mxCell>
        <mxCell id="73ctjBRM2FCBYfKOBE_B-104" value="Delogare" style="text;align=center;fontStyle=1;verticalAlign=middle;spacingLeft=3;spacingRight=3;strokeColor=none;rotatable=0;points=[[0,0.5],[1,0.5]];portConstraint=eastwest;html=1;" vertex="1" parent="1c1d494c118603dd-3">
          <mxGeometry x="180" y="740" width="80" height="26" as="geometry" />
        </mxCell>
        <mxCell id="73ctjBRM2FCBYfKOBE_B-45" value="" style="endArrow=open;html=1;rounded=0;exitX=1;exitY=0.5;exitDx=0;exitDy=0;entryX=0;entryY=0.5;entryDx=0;entryDy=0;endFill=0;" edge="1" parent="1c1d494c118603dd-1" source="1c1d494c118603dd-11" target="73ctjBRM2FCBYfKOBE_B-44">
          <mxGeometry width="50" height="50" relative="1" as="geometry">
            <mxPoint x="350" y="410" as="sourcePoint" />
            <mxPoint x="400" y="360" as="targetPoint" />
          </mxGeometry>
        </mxCell>
        <mxCell id="73ctjBRM2FCBYfKOBE_B-49" value="" style="endArrow=open;html=1;rounded=0;exitX=0.5;exitY=1;exitDx=0;exitDy=0;entryX=1;entryY=0.75;entryDx=0;entryDy=0;endFill=0;" edge="1" parent="1c1d494c118603dd-1" source="73ctjBRM2FCBYfKOBE_B-44" target="73ctjBRM2FCBYfKOBE_B-46">
          <mxGeometry width="50" height="50" relative="1" as="geometry">
            <mxPoint x="350" y="410" as="sourcePoint" />
            <mxPoint x="400" y="360" as="targetPoint" />
            <Array as="points">
              <mxPoint x="795" y="530" />
            </Array>
          </mxGeometry>
        </mxCell>
        <mxCell id="73ctjBRM2FCBYfKOBE_B-54" value="" style="endArrow=open;html=1;rounded=0;entryX=0;entryY=0.5;entryDx=0;entryDy=0;exitX=1;exitY=0.5;exitDx=0;exitDy=0;endFill=0;" edge="1" parent="1c1d494c118603dd-1" source="73ctjBRM2FCBYfKOBE_B-52" target="73ctjBRM2FCBYfKOBE_B-53">
          <mxGeometry width="50" height="50" relative="1" as="geometry">
            <mxPoint x="618" y="550" as="sourcePoint" />
            <mxPoint x="618" y="600" as="targetPoint" />
          </mxGeometry>
        </mxCell>
        <mxCell id="73ctjBRM2FCBYfKOBE_B-58" value="" style="endArrow=open;html=1;rounded=0;entryX=0;entryY=0.5;entryDx=0;entryDy=0;exitX=0.5;exitY=1;exitDx=0;exitDy=0;endFill=0;" edge="1" parent="1c1d494c118603dd-1" source="73ctjBRM2FCBYfKOBE_B-55" target="60571a20871a0731-5">
          <mxGeometry width="50" height="50" relative="1" as="geometry">
            <mxPoint x="668" y="615" as="sourcePoint" />
            <mxPoint x="770" y="615" as="targetPoint" />
            <Array as="points">
              <mxPoint x="608" y="840" />
            </Array>
          </mxGeometry>
        </mxCell>
        <mxCell id="73ctjBRM2FCBYfKOBE_B-73" value="" style="endArrow=open;html=1;rounded=0;exitX=0.42;exitY=1.127;exitDx=0;exitDy=0;endFill=0;exitPerimeter=0;" edge="1" parent="1c1d494c118603dd-1" source="73ctjBRM2FCBYfKOBE_B-70">
          <mxGeometry width="50" height="50" relative="1" as="geometry">
            <mxPoint x="1378" y="315" as="sourcePoint" />
            <mxPoint x="1495" y="400" as="targetPoint" />
            <Array as="points">
              <mxPoint x="1495" y="400" />
            </Array>
          </mxGeometry>
        </mxCell>
        <mxCell id="73ctjBRM2FCBYfKOBE_B-77" value="" style="endArrow=open;endFill=1;endSize=12;html=1;rounded=0;exitX=0.5;exitY=1;exitDx=0;exitDy=0;entryX=1;entryY=0.5;entryDx=0;entryDy=0;" edge="1" parent="1c1d494c118603dd-1" source="73ctjBRM2FCBYfKOBE_B-74" target="73ctjBRM2FCBYfKOBE_B-80">
          <mxGeometry width="160" relative="1" as="geometry">
            <mxPoint x="1040" y="510" as="sourcePoint" />
            <mxPoint x="1200" y="390" as="targetPoint" />
            <Array as="points">
              <mxPoint x="1505" y="678" />
            </Array>
          </mxGeometry>
        </mxCell>
        <mxCell id="73ctjBRM2FCBYfKOBE_B-84" value="" style="endArrow=open;html=1;rounded=0;exitX=0.5;exitY=1;exitDx=0;exitDy=0;endFill=0;" edge="1" parent="1c1d494c118603dd-1" source="73ctjBRM2FCBYfKOBE_B-88">
          <mxGeometry width="50" height="50" relative="1" as="geometry">
            <mxPoint x="1181" y="140" as="sourcePoint" />
            <mxPoint x="930" y="465" as="targetPoint" />
            <Array as="points">
              <mxPoint x="1349" y="540" />
              <mxPoint x="930" y="540" />
            </Array>
          </mxGeometry>
        </mxCell>
        <mxCell id="73ctjBRM2FCBYfKOBE_B-101" value="" style="endArrow=open;html=1;rounded=0;exitX=0;exitY=0.5;exitDx=0;exitDy=0;entryX=0.5;entryY=0;entryDx=0;entryDy=0;endFill=0;" edge="1" parent="1c1d494c118603dd-1" source="73ctjBRM2FCBYfKOBE_B-96" target="73ctjBRM2FCBYfKOBE_B-100">
          <mxGeometry width="50" height="50" relative="1" as="geometry">
            <mxPoint x="1181" y="140" as="sourcePoint" />
            <mxPoint x="1181" y="190" as="targetPoint" />
            <Array as="points">
              <mxPoint x="901" y="415" />
            </Array>
          </mxGeometry>
        </mxCell>
        <mxCell id="1c1d494c118603dd-4" value="Donator(autentificat)" style="swimlane;html=1;startSize=20;" parent="1c1d494c118603dd-1" vertex="1">
          <mxGeometry x="960" y="20" width="690" height="870" as="geometry" />
        </mxCell>
        <mxCell id="60571a20871a0731-8" value="Accesare pagină programări" style="rounded=1;whiteSpace=wrap;html=1;shadow=0;comic=0;labelBackgroundColor=none;strokeWidth=1;fontFamily=Verdana;fontSize=12;align=center;arcSize=50;" parent="1c1d494c118603dd-4" vertex="1">
          <mxGeometry x="156.25" y="80" width="130" height="30" as="geometry" />
        </mxCell>
        <mxCell id="73ctjBRM2FCBYfKOBE_B-60" value="Apasă buton creare programare" style="rounded=1;whiteSpace=wrap;html=1;shadow=0;comic=0;labelBackgroundColor=none;strokeWidth=1;fontFamily=Verdana;fontSize=12;align=center;arcSize=50;" vertex="1" parent="1c1d494c118603dd-4">
          <mxGeometry x="330" y="170" width="120" height="30" as="geometry" />
        </mxCell>
        <mxCell id="73ctjBRM2FCBYfKOBE_B-62" value="" style="rhombus;whiteSpace=wrap;html=1;" vertex="1" parent="1c1d494c118603dd-4">
          <mxGeometry x="192.5" y="160" width="57.5" height="50" as="geometry" />
        </mxCell>
        <mxCell id="73ctjBRM2FCBYfKOBE_B-63" value="" style="endArrow=open;html=1;rounded=0;exitX=0.5;exitY=1;exitDx=0;exitDy=0;entryX=0.5;entryY=0;entryDx=0;entryDy=0;endFill=0;" edge="1" parent="1c1d494c118603dd-4" source="60571a20871a0731-8" target="73ctjBRM2FCBYfKOBE_B-62">
          <mxGeometry width="50" height="50" relative="1" as="geometry">
            <mxPoint x="-280" y="395" as="sourcePoint" />
            <mxPoint x="-210" y="395" as="targetPoint" />
          </mxGeometry>
        </mxCell>
        <mxCell id="73ctjBRM2FCBYfKOBE_B-64" value="" style="endArrow=open;html=1;rounded=0;exitX=1;exitY=0.5;exitDx=0;exitDy=0;entryX=0;entryY=0.5;entryDx=0;entryDy=0;endFill=0;" edge="1" parent="1c1d494c118603dd-4" source="73ctjBRM2FCBYfKOBE_B-62" target="73ctjBRM2FCBYfKOBE_B-60">
          <mxGeometry width="50" height="50" relative="1" as="geometry">
            <mxPoint x="231" y="120" as="sourcePoint" />
            <mxPoint x="231" y="170" as="targetPoint" />
          </mxGeometry>
        </mxCell>
        <mxCell id="73ctjBRM2FCBYfKOBE_B-65" value="Fă &lt;br&gt;programare" style="text;align=center;fontStyle=1;verticalAlign=middle;spacingLeft=3;spacingRight=3;strokeColor=none;rotatable=0;points=[[0,0.5],[1,0.5]];portConstraint=eastwest;html=1;" vertex="1" parent="1c1d494c118603dd-4">
          <mxGeometry x="245" y="160" width="80" height="26" as="geometry" />
        </mxCell>
        <mxCell id="73ctjBRM2FCBYfKOBE_B-66" value="Accesare pagină programări" style="rounded=1;whiteSpace=wrap;html=1;shadow=0;comic=0;labelBackgroundColor=none;strokeWidth=1;fontFamily=Verdana;fontSize=12;align=center;arcSize=50;" vertex="1" parent="1c1d494c118603dd-4">
          <mxGeometry x="10" y="170" width="130" height="30" as="geometry" />
        </mxCell>
        <mxCell id="73ctjBRM2FCBYfKOBE_B-67" value="" style="endArrow=open;html=1;rounded=0;exitX=0;exitY=0.5;exitDx=0;exitDy=0;entryX=1;entryY=0.5;entryDx=0;entryDy=0;endFill=0;" edge="1" parent="1c1d494c118603dd-4" source="73ctjBRM2FCBYfKOBE_B-62" target="73ctjBRM2FCBYfKOBE_B-66">
          <mxGeometry width="50" height="50" relative="1" as="geometry">
            <mxPoint x="231" y="120" as="sourcePoint" />
            <mxPoint x="231" y="170" as="targetPoint" />
          </mxGeometry>
        </mxCell>
        <mxCell id="73ctjBRM2FCBYfKOBE_B-68" value="" style="rhombus;whiteSpace=wrap;html=1;" vertex="1" parent="1c1d494c118603dd-4">
          <mxGeometry x="360" y="260" width="57.5" height="50" as="geometry" />
        </mxCell>
        <mxCell id="73ctjBRM2FCBYfKOBE_B-69" value="" style="endArrow=open;html=1;rounded=0;exitX=0.5;exitY=1;exitDx=0;exitDy=0;entryX=0.5;entryY=0;entryDx=0;entryDy=0;endFill=0;" edge="1" parent="1c1d494c118603dd-4" source="73ctjBRM2FCBYfKOBE_B-60" target="73ctjBRM2FCBYfKOBE_B-68">
          <mxGeometry width="50" height="50" relative="1" as="geometry">
            <mxPoint x="231" y="120" as="sourcePoint" />
            <mxPoint x="231" y="170" as="targetPoint" />
          </mxGeometry>
        </mxCell>
        <mxCell id="73ctjBRM2FCBYfKOBE_B-70" value="Apasă buton modificare" style="rounded=1;whiteSpace=wrap;html=1;shadow=0;comic=0;labelBackgroundColor=none;strokeWidth=1;fontFamily=Verdana;fontSize=12;align=center;arcSize=50;" vertex="1" parent="1c1d494c118603dd-4">
          <mxGeometry x="480" y="270" width="130" height="30" as="geometry" />
        </mxCell>
        <mxCell id="73ctjBRM2FCBYfKOBE_B-71" value="Modifică" style="text;align=center;fontStyle=1;verticalAlign=middle;spacingLeft=3;spacingRight=3;strokeColor=none;rotatable=0;points=[[0,0.5],[1,0.5]];portConstraint=eastwest;html=1;" vertex="1" parent="1c1d494c118603dd-4">
          <mxGeometry x="410" y="260" width="80" height="26" as="geometry" />
        </mxCell>
        <mxCell id="73ctjBRM2FCBYfKOBE_B-72" value="" style="endArrow=open;html=1;rounded=0;exitX=1;exitY=0.5;exitDx=0;exitDy=0;entryX=0;entryY=0.5;entryDx=0;entryDy=0;endFill=0;" edge="1" parent="1c1d494c118603dd-4" source="73ctjBRM2FCBYfKOBE_B-68" target="73ctjBRM2FCBYfKOBE_B-70">
          <mxGeometry width="50" height="50" relative="1" as="geometry">
            <mxPoint x="203" y="195" as="sourcePoint" />
            <mxPoint x="150" y="195" as="targetPoint" />
          </mxGeometry>
        </mxCell>
        <mxCell id="73ctjBRM2FCBYfKOBE_B-74" value="Apasă buton salvare modificare" style="rounded=1;whiteSpace=wrap;html=1;shadow=0;comic=0;labelBackgroundColor=none;strokeWidth=1;fontFamily=Verdana;fontSize=12;align=center;arcSize=50;" vertex="1" parent="1c1d494c118603dd-4">
          <mxGeometry x="480" y="380" width="130" height="30" as="geometry" />
        </mxCell>
        <mxCell id="73ctjBRM2FCBYfKOBE_B-78" value="Vizualizare" style="text;align=center;fontStyle=1;verticalAlign=middle;spacingLeft=3;spacingRight=3;strokeColor=none;rotatable=0;points=[[0,0.5],[1,0.5]];portConstraint=eastwest;html=1;" vertex="1" parent="1c1d494c118603dd-4">
          <mxGeometry x="130" y="160" width="80" height="26" as="geometry" />
        </mxCell>
        <mxCell id="73ctjBRM2FCBYfKOBE_B-81" value="Apasă buton salvare programare" style="rounded=1;whiteSpace=wrap;html=1;shadow=0;comic=0;labelBackgroundColor=none;strokeWidth=1;fontFamily=Verdana;fontSize=12;align=center;arcSize=50;" vertex="1" parent="1c1d494c118603dd-4">
          <mxGeometry x="170" y="270" width="130" height="30" as="geometry" />
        </mxCell>
        <mxCell id="73ctjBRM2FCBYfKOBE_B-82" value="" style="endArrow=open;html=1;rounded=0;exitX=0;exitY=0.5;exitDx=0;exitDy=0;entryX=1;entryY=0.5;entryDx=0;entryDy=0;endFill=0;" edge="1" parent="1c1d494c118603dd-4" source="73ctjBRM2FCBYfKOBE_B-68" target="73ctjBRM2FCBYfKOBE_B-81">
          <mxGeometry width="50" height="50" relative="1" as="geometry">
            <mxPoint x="400" y="210" as="sourcePoint" />
            <mxPoint x="399" y="270" as="targetPoint" />
          </mxGeometry>
        </mxCell>
        <mxCell id="73ctjBRM2FCBYfKOBE_B-83" value="Nu modifica" style="text;html=1;align=center;verticalAlign=middle;resizable=0;points=[];autosize=1;strokeColor=none;fillColor=none;" vertex="1" parent="1c1d494c118603dd-4">
          <mxGeometry x="285" y="260" width="90" height="30" as="geometry" />
        </mxCell>
        <mxCell id="73ctjBRM2FCBYfKOBE_B-85" value="" style="rhombus;whiteSpace=wrap;html=1;" vertex="1" parent="1c1d494c118603dd-4">
          <mxGeometry x="192.5" y="370" width="57.5" height="50" as="geometry" />
        </mxCell>
        <mxCell id="73ctjBRM2FCBYfKOBE_B-87" value="Vizualizare &lt;br&gt;document" style="text;html=1;align=center;verticalAlign=middle;resizable=0;points=[];autosize=1;strokeColor=none;fillColor=none;" vertex="1" parent="1c1d494c118603dd-4">
          <mxGeometry x="220" y="325" width="80" height="40" as="geometry" />
        </mxCell>
        <mxCell id="73ctjBRM2FCBYfKOBE_B-88" value="Apasă buton delete" style="rounded=1;whiteSpace=wrap;html=1;shadow=0;comic=0;labelBackgroundColor=none;strokeWidth=1;fontFamily=Verdana;fontSize=12;align=center;arcSize=50;" vertex="1" parent="1c1d494c118603dd-4">
          <mxGeometry x="323.75" y="450" width="130" height="30" as="geometry" />
        </mxCell>
        <mxCell id="73ctjBRM2FCBYfKOBE_B-89" value="" style="endArrow=open;html=1;rounded=0;exitX=1;exitY=0.5;exitDx=0;exitDy=0;endFill=0;entryX=0;entryY=0.5;entryDx=0;entryDy=0;" edge="1" parent="1c1d494c118603dd-4" source="73ctjBRM2FCBYfKOBE_B-85" target="73ctjBRM2FCBYfKOBE_B-92">
          <mxGeometry width="50" height="50" relative="1" as="geometry">
            <mxPoint x="231" y="120" as="sourcePoint" />
            <mxPoint x="310" y="395" as="targetPoint" />
          </mxGeometry>
        </mxCell>
        <mxCell id="73ctjBRM2FCBYfKOBE_B-90" value="Șterge" style="text;html=1;align=center;verticalAlign=middle;resizable=0;points=[];autosize=1;strokeColor=none;fillColor=none;" vertex="1" parent="1c1d494c118603dd-4">
          <mxGeometry x="255" y="365" width="60" height="30" as="geometry" />
        </mxCell>
        <mxCell id="73ctjBRM2FCBYfKOBE_B-92" value="Selectează programare" style="rounded=1;whiteSpace=wrap;html=1;shadow=0;comic=0;labelBackgroundColor=none;strokeWidth=1;fontFamily=Verdana;fontSize=12;align=center;arcSize=50;" vertex="1" parent="1c1d494c118603dd-4">
          <mxGeometry x="320" y="380" width="130" height="30" as="geometry" />
        </mxCell>
        <mxCell id="73ctjBRM2FCBYfKOBE_B-93" value="" style="endArrow=open;html=1;rounded=0;exitX=0.5;exitY=1;exitDx=0;exitDy=0;endFill=0;" edge="1" parent="1c1d494c118603dd-4" source="73ctjBRM2FCBYfKOBE_B-92">
          <mxGeometry width="50" height="50" relative="1" as="geometry">
            <mxPoint x="231" y="120" as="sourcePoint" />
            <mxPoint x="385" y="450" as="targetPoint" />
          </mxGeometry>
        </mxCell>
        <mxCell id="73ctjBRM2FCBYfKOBE_B-96" value="Revino la pagină" style="rounded=1;whiteSpace=wrap;html=1;shadow=0;comic=0;labelBackgroundColor=none;strokeWidth=1;fontFamily=Verdana;fontSize=12;align=center;arcSize=50;" vertex="1" parent="1c1d494c118603dd-4">
          <mxGeometry x="26.25" y="380" width="130" height="30" as="geometry" />
        </mxCell>
        <mxCell id="73ctjBRM2FCBYfKOBE_B-97" value="" style="endArrow=open;html=1;rounded=0;entryX=1;entryY=0.5;entryDx=0;entryDy=0;endFill=0;exitX=0;exitY=0.5;exitDx=0;exitDy=0;" edge="1" parent="1c1d494c118603dd-4" source="73ctjBRM2FCBYfKOBE_B-85" target="73ctjBRM2FCBYfKOBE_B-96">
          <mxGeometry width="50" height="50" relative="1" as="geometry">
            <mxPoint x="231" y="130" as="sourcePoint" />
            <mxPoint x="231" y="170" as="targetPoint" />
          </mxGeometry>
        </mxCell>
        <mxCell id="73ctjBRM2FCBYfKOBE_B-86" value="" style="endArrow=open;html=1;rounded=0;entryX=0.5;entryY=0;entryDx=0;entryDy=0;endFill=0;" edge="1" parent="1" target="73ctjBRM2FCBYfKOBE_B-85">
          <mxGeometry width="50" height="50" relative="1" as="geometry">
            <mxPoint x="1219" y="340" as="sourcePoint" />
            <mxPoint x="1221" y="210" as="targetPoint" />
          </mxGeometry>
        </mxCell>
      </root>
    </mxGraphModel>
  </diagram>
</mxfile>
